<svg xmlns="http://www.w3.org/2000/svg" viewBox="0 0 149 129"><defs><style>.cls-1,.cls-18,.cls-19,.cls-28,.cls-36,.cls-37{font-size:12px;font-family:FatFrank-Heavy, FatFrank;}.cls-1,.cls-18,.cls-20,.cls-26,.cls-28,.cls-36,.cls-38,.cls-44,.cls-46,.cls-50{fill:none;}.cls-1,.cls-20,.cls-28,.cls-38,.cls-46{stroke:#f93;}.cls-1,.cls-18,.cls-28,.cls-36,.cls-50{stroke-linecap:round;}.cls-1,.cls-18,.cls-28,.cls-36,.cls-46,.cls-50{stroke-linejoin:round;}.cls-1,.cls-28{stroke-width:6px;}.cls-1,.cls-18,.cls-19{letter-spacing:-0.04em;}.cls-2{letter-spacing:-0.03em;}.cls-3{letter-spacing:-0.06em;}.cls-4{letter-spacing:-0.08em;}.cls-5{letter-spacing:-0.04em;}.cls-6{letter-spacing:-0.03em;}.cls-7{letter-spacing:-0.06em;}.cls-8{font-family:KozGoPr6N-Regular-83pv-RKSJ-H, Kozuka Gothic Pr6N;}.cls-12,.cls-8{letter-spacing:-0.06em;}.cls-9{letter-spacing:-0.07em;}.cls-10{letter-spacing:-0.05em;}.cls-11{letter-spacing:-0.03em;}.cls-13{letter-spacing:-0.09em;}.cls-14{letter-spacing:-0.04em;}.cls-15{letter-spacing:-0.06em;}.cls-16{letter-spacing:-0.03em;}.cls-17{letter-spacing:-0.06em;}.cls-18,.cls-26,.cls-36,.cls-44,.cls-50{stroke:#fff;}.cls-18,.cls-36{stroke-width:3px;}.cls-19,.cls-27,.cls-37,.cls-45{fill:#fc0;}.cls-20,.cls-26,.cls-27{font-size:31.08px;letter-spacing:-0.24em;}.cls-20,.cls-38{stroke-width:8px;}.cls-20,.cls-26,.cls-27,.cls-38,.cls-44,.cls-45{font-family:Nekokaburi-83pv-RKSJ-H, Nekokaburi;}.cls-21{letter-spacing:-0.32em;}.cls-22{letter-spacing:-0.32em;}.cls-23{letter-spacing:-0.22em;}.cls-24{letter-spacing:-0.02em;}.cls-25{font-family:HWTGothicRound, HWT Gothic Round;letter-spacing:-0.26em;}.cls-26,.cls-44{stroke-width:5px;}.cls-28,.cls-36,.cls-37{letter-spacing:-0.05em;}.cls-29{letter-spacing:-0.06em;}.cls-30{letter-spacing:-0.03em;}.cls-31{letter-spacing:-0.05em;}.cls-32{letter-spacing:-0.03em;}.cls-33{letter-spacing:-0.05em;}.cls-34{letter-spacing:-0.04em;}.cls-35{letter-spacing:-0.04em;}.cls-38,.cls-44,.cls-45{font-size:31px;letter-spacing:-0.31em;}.cls-39{letter-spacing:-0.34em;}.cls-40{letter-spacing:-0.19em;}.cls-41{letter-spacing:-0.22em;}.cls-42{letter-spacing:-0.18em;}.cls-43{letter-spacing:-0.06em;}.cls-46,.cls-50,.cls-51{font-size:44px;font-family:Keifont, Keifont;letter-spacing:-0.19em;}.cls-46{stroke-width:12px;}.cls-47{letter-spacing:-0.18em;}.cls-48{letter-spacing:-0.18em;}.cls-49{letter-spacing:-0.1em;}.cls-50{stroke-width:9px;}.cls-51{fill:#8dd0ff;}.cls-52{fill:#fff;}</style></defs><title>アートボード 1</title><g id="レイヤー_2" data-name="レイヤー 2"><text class="cls-1" transform="translate(7.04 125.46)">W<tspan class="cls-2" x="11.06" y="0">E</tspan><tspan class="cls-3" x="17.27" y="0">L</tspan><tspan class="cls-4" x="21.9" y="0">C</tspan><tspan class="cls-5" x="28.21" y="0">O</tspan><tspan class="cls-6" x="36.85" y="0">M</tspan><tspan class="cls-7" x="46.84" y="0">E </tspan><tspan class="cls-8" x="53.56" y="0.42" xml:space="preserve">  </tspan><tspan class="cls-9" x="57.71" y="0">T</tspan><tspan class="cls-7" x="63.66" y="0">O </tspan><tspan class="cls-8" x="72.94" y="0.42" xml:space="preserve">  </tspan><tspan class="cls-10" x="77.09" y="0">T</tspan><tspan class="cls-11" x="83.26" y="0">H</tspan><tspan class="cls-12" x="90.63" y="0" xml:space="preserve">E    </tspan><tspan class="cls-8" x="99.87" y="0.42"> </tspan><tspan class="cls-13" x="101.95" y="0">P</tspan><tspan class="cls-14" x="107.7" y="0">A</tspan><tspan class="cls-15" x="115.24" y="0">R</tspan><tspan class="cls-16" x="121.89" y="0">T</tspan><tspan class="cls-17" x="128.33" y="0">Y</tspan></text><text class="cls-18" transform="translate(7.04 125.46)">W<tspan class="cls-2" x="11.06" y="0">E</tspan><tspan class="cls-3" x="17.27" y="0">L</tspan><tspan class="cls-4" x="21.9" y="0">C</tspan><tspan class="cls-5" x="28.21" y="0">O</tspan><tspan class="cls-6" x="36.85" y="0">M</tspan><tspan class="cls-7" x="46.84" y="0">E </tspan><tspan class="cls-8" x="53.56" y="0.42" xml:space="preserve">  </tspan><tspan class="cls-9" x="57.71" y="0">T</tspan><tspan class="cls-7" x="63.66" y="0">O </tspan><tspan class="cls-8" x="72.94" y="0.42" xml:space="preserve">  </tspan><tspan class="cls-10" x="77.09" y="0">T</tspan><tspan class="cls-11" x="83.26" y="0">H</tspan><tspan class="cls-12" x="90.63" y="0" xml:space="preserve">E    </tspan><tspan class="cls-8" x="99.87" y="0.42"> </tspan><tspan class="cls-13" x="101.95" y="0">P</tspan><tspan class="cls-14" x="107.7" y="0">A</tspan><tspan class="cls-15" x="115.24" y="0">R</tspan><tspan class="cls-16" x="121.89" y="0">T</tspan><tspan class="cls-17" x="128.33" y="0">Y</tspan></text><text class="cls-19" transform="translate(7.04 125.46)">W<tspan class="cls-2" x="11.06" y="0">E</tspan><tspan class="cls-3" x="17.27" y="0">L</tspan><tspan class="cls-4" x="21.9" y="0">C</tspan><tspan class="cls-5" x="28.21" y="0">O</tspan><tspan class="cls-6" x="36.85" y="0">M</tspan><tspan class="cls-7" x="46.84" y="0">E </tspan><tspan class="cls-8" x="53.56" y="0.42" xml:space="preserve">  </tspan><tspan class="cls-9" x="57.71" y="0">T</tspan><tspan class="cls-7" x="63.66" y="0">O </tspan><tspan class="cls-8" x="72.94" y="0.42" xml:space="preserve">  </tspan><tspan class="cls-10" x="77.09" y="0">T</tspan><tspan class="cls-11" x="83.26" y="0">H</tspan><tspan class="cls-12" x="90.63" y="0" xml:space="preserve">E    </tspan><tspan class="cls-8" x="99.87" y="0.42"> </tspan><tspan class="cls-13" x="101.95" y="0">P</tspan><tspan class="cls-14" x="107.7" y="0">A</tspan><tspan class="cls-15" x="115.24" y="0">R</tspan><tspan class="cls-16" x="121.89" y="0">T</tspan><tspan class="cls-17" x="128.33" y="0">Y</tspan></text><text class="cls-20" transform="translate(0.07 112.38)">で<tspan class="cls-21" x="23.56" y="0">き</tspan><tspan class="cls-22" x="44.81" y="0">ま</tspan><tspan class="cls-23" x="65.99" y="0">す</tspan><tspan class="cls-24" x="90.13" y="0">か</tspan><tspan class="cls-25" x="120.62" y="-0.62">?</tspan></text><text class="cls-26" transform="translate(0.07 112.38)">で<tspan class="cls-21" x="23.56" y="0">き</tspan><tspan class="cls-22" x="44.81" y="0">ま</tspan><tspan class="cls-23" x="65.99" y="0">す</tspan><tspan class="cls-24" x="90.13" y="0">か</tspan><tspan class="cls-25" x="120.62" y="-0.62">?</tspan></text><text class="cls-27" transform="translate(0.07 112.38)">で<tspan class="cls-21" x="23.56" y="0">き</tspan><tspan class="cls-22" x="44.81" y="0">ま</tspan><tspan class="cls-23" x="65.99" y="0">す</tspan><tspan class="cls-24" x="90.13" y="0">か</tspan><tspan class="cls-25" x="120.62" y="-0.62">?</tspan></text><text class="cls-28" transform="translate(20.99 11.67)">B<tspan class="cls-5" x="6.6" y="0">O</tspan><tspan class="cls-29" x="15.24" y="0">K</tspan><tspan class="cls-30" x="22.09" y="0">U</tspan><tspan class="cls-31" x="29.1" y="0">-</tspan><tspan class="cls-14" x="33.27" y="0">A</tspan><tspan class="cls-32" x="40.81" y="0">N</tspan><tspan class="cls-7" x="48.37" y="0" xml:space="preserve">I       </tspan><tspan class="cls-33" x="56.87" y="0">P</tspan><tspan class="cls-34" x="63.11" y="0">RE</tspan><tspan class="cls-35" x="75.96" y="0">S</tspan><tspan class="cls-2" x="81.92" y="0">E</tspan><tspan class="cls-10" x="88.12" y="0">NT</tspan><tspan class="cls-7" x="101.6" y="0">S</tspan></text><text class="cls-36" transform="translate(20.99 11.67)">B<tspan class="cls-5" x="6.6" y="0">O</tspan><tspan class="cls-29" x="15.24" y="0">K</tspan><tspan class="cls-30" x="22.09" y="0">U</tspan><tspan class="cls-31" x="29.1" y="0">-</tspan><tspan class="cls-14" x="33.27" y="0">A</tspan><tspan class="cls-32" x="40.81" y="0">N</tspan><tspan class="cls-7" x="48.37" y="0" xml:space="preserve">I       </tspan><tspan class="cls-33" x="56.87" y="0">P</tspan><tspan class="cls-34" x="63.11" y="0">RE</tspan><tspan class="cls-35" x="75.96" y="0">S</tspan><tspan class="cls-2" x="81.92" y="0">E</tspan><tspan class="cls-10" x="88.12" y="0">NT</tspan><tspan class="cls-7" x="101.6" y="0">S</tspan></text><text class="cls-37" transform="translate(20.99 11.67)">B<tspan class="cls-5" x="6.6" y="0">O</tspan><tspan class="cls-29" x="15.24" y="0">K</tspan><tspan class="cls-30" x="22.09" y="0">U</tspan><tspan class="cls-31" x="29.1" y="0">-</tspan><tspan class="cls-14" x="33.27" y="0">A</tspan><tspan class="cls-32" x="40.81" y="0">N</tspan><tspan class="cls-7" x="48.37" y="0" xml:space="preserve">I       </tspan><tspan class="cls-33" x="56.87" y="0">P</tspan><tspan class="cls-34" x="63.11" y="0">RE</tspan><tspan class="cls-35" x="75.96" y="0">S</tspan><tspan class="cls-2" x="81.92" y="0">E</tspan><tspan class="cls-10" x="88.12" y="0">NT</tspan><tspan class="cls-7" x="101.6" y="0">S</tspan></text><text class="cls-38" transform="translate(0.96 40)">ぼ<tspan class="cls-39" x="21.39" y="0">く</tspan><tspan class="cls-40" x="41.85" y="0">た</tspan><tspan class="cls-41" x="66.88" y="0">ち</tspan><tspan class="cls-42" x="91.06" y="0">で</tspan><tspan class="cls-43" x="116.41" y="0">も</tspan></text><text class="cls-44" transform="translate(0.96 40)">ぼ<tspan class="cls-39" x="21.39" y="0">く</tspan><tspan class="cls-40" x="41.85" y="0">た</tspan><tspan class="cls-41" x="66.88" y="0">ち</tspan><tspan class="cls-42" x="91.06" y="0">で</tspan><tspan class="cls-43" x="116.41" y="0">も</tspan></text><text class="cls-44" transform="translate(0.96 40)">ぼ<tspan class="cls-39" x="21.39" y="0">く</tspan><tspan class="cls-40" x="41.85" y="0">た</tspan><tspan class="cls-41" x="66.88" y="0">ち</tspan><tspan class="cls-42" x="91.06" y="0">で</tspan><tspan class="cls-43" x="116.41" y="0">も</tspan></text><text class="cls-45" transform="translate(0.96 40)">ぼ<tspan class="cls-39" x="21.39" y="0">く</tspan><tspan class="cls-40" x="41.85" y="0">た</tspan><tspan class="cls-41" x="66.88" y="0">ち</tspan><tspan class="cls-42" x="91.06" y="0">で</tspan><tspan class="cls-43" x="116.41" y="0">も</tspan></text><text class="cls-46" transform="translate(3.81 81)">ア<tspan class="cls-47" x="35.59" y="0">ニ</tspan><tspan class="cls-48" x="71.74" y="0">ク</tspan><tspan class="cls-49" x="102.79" y="0">ラ</tspan></text><text class="cls-50" transform="translate(3.81 81)">ア<tspan class="cls-47" x="35.59" y="0">ニ</tspan><tspan class="cls-48" x="71.74" y="0">ク</tspan><tspan class="cls-49" x="102.79" y="0">ラ</tspan></text><text class="cls-51" transform="translate(3.81 81)">ア<tspan class="cls-47" x="35.59" y="0">ニ</tspan><tspan class="cls-48" x="71.74" y="0">ク</tspan><tspan class="cls-49" x="102.79" y="0">ラ</tspan></text></g><g id="レイヤー_3" data-name="レイヤー 3"><path class="cls-52" d="M70.83,61.72a10.33,10.33,0,0,1-.61,2.12l2.89.8a4,4,0,0,1,.48-1.15l-2.8-.76a6,6,0,0,1-1.1,2.94l2.8.76a6.23,6.23,0,0,1,.4-2L69.95,64a7.72,7.72,0,0,1-.52,1.91c-.63,1.6,1.92,2.6,2.74,1.16a7.53,7.53,0,0,1,2.18-2.85l-2.2-.9a4.65,4.65,0,0,1,.05,2.51l2.95.4a8.81,8.81,0,0,1,.11-3l-2.95-.4a19.8,19.8,0,0,1-.59,2.94,1.5,1.5,0,0,0,2.89.8,25,25,0,0,0,.69-3.73c.18-1.68-2.58-2-2.95-.4a11.2,11.2,0,0,0-.22,3.82,1.52,1.52,0,0,0,1.3,1.47,1.5,1.5,0,0,0,1.65-1.07A7.77,7.77,0,0,0,75,62.54a1.51,1.51,0,0,0-2.2-.9,10.43,10.43,0,0,0-3.25,3.92l2.74,1.16A10.63,10.63,0,0,0,72.95,64a1.48,1.48,0,0,0-1.3-1.47A1.52,1.52,0,0,0,70,63.62a8.94,8.94,0,0,0-.51,2.81,1.51,1.51,0,0,0,2.8.76,8.94,8.94,0,0,0,1.51-4.45A1.51,1.51,0,0,0,71,62a7,7,0,0,0-.79,1.86,1.5,1.5,0,0,0,2.89.8,10.33,10.33,0,0,0,.61-2.12,1.54,1.54,0,0,0-1-1.85,1.51,1.51,0,0,0-1.85,1Z"/><path class="cls-52" d="M67.37,68.25c.71-1.13,1.3-2.51,2.45-3.27l-2.2-1.69a6.88,6.88,0,0,1-1.54,3.27l2.56,1.06A5.81,5.81,0,0,1,70,64.14l-2.8-.76a5.92,5.92,0,0,1-.32,2.13,1.51,1.51,0,0,0,2.74,1.16A28.7,28.7,0,0,1,71.86,63a1.55,1.55,0,0,0,0-2.12,1.51,1.51,0,0,0-2.12,0A33.38,33.38,0,0,0,67,65.15l2.74,1.16a8.42,8.42,0,0,0,.43-2.92,1.51,1.51,0,0,0-2.8-.76,8.4,8.4,0,0,0-1.73,5c0,1.17,1.71,2.14,2.56,1.06a9.9,9.9,0,0,0,2.31-4.59c.18-1.17-1-2.5-2.2-1.69-1.63,1.09-2.5,2.73-3.52,4.35s1.56,3.14,2.59,1.51Z"/><path class="cls-52" d="M64.28,65.73l.2.09-.3,2.36a7.42,7.42,0,0,1,1.91-1c.22-.08.43-.14.66-.2l.15,0q.28-.05,0,0,.27,0-.1,0-.92-.88-.36-1.29a5.17,5.17,0,0,0-.58.39l2.2,1.69a11.14,11.14,0,0,1,.55-2.1,1.49,1.49,0,0,0-.87-1.77,1.53,1.53,0,0,0-1.87.61,15.57,15.57,0,0,0-1.21,2c-.88,1.72,1.71,3.23,2.59,1.51a15.57,15.57,0,0,1,1.21-2l-2.74-1.16a11.14,11.14,0,0,0-.55,2.1,1.52,1.52,0,0,0,2.2,1.69A3.08,3.08,0,0,0,69.29,66,2.28,2.28,0,0,0,67,64a5.71,5.71,0,0,0-2.24.55,9.49,9.49,0,0,0-2.11,1.07,1.53,1.53,0,0,0-.3,2.36,2.19,2.19,0,0,0,1.13.68,1.5,1.5,0,0,0,.8-2.89Z"/><path class="cls-52" d="M65,60.77c-1.76,2.47-4.24,4.29-6.52,6.25l2.12,2.12a50.87,50.87,0,0,1,4.28-3.51l-2.05-2.05a9.32,9.32,0,0,1-1.41,2.15l2.51,1.46A5.68,5.68,0,0,1,66.1,63.6l-2.26-1.3a2.63,2.63,0,0,1-.57,1.8c-1.12,1.62,1.44,3,2.59,1.51a18.62,18.62,0,0,1,2.32-2.46L65.61,62.1a4.34,4.34,0,0,1-.38,2.09c-.65,1.55,2,2.7,2.74,1.16q.3-.68.62-1.35l-2.74-1.16c-.2.5-.4,1-.6,1.5-.64,1.6,1.92,2.6,2.74,1.16A4.49,4.49,0,0,1,69.22,64L67,62.74a6.39,6.39,0,0,1-.36,3.1l2.89.8a12.42,12.42,0,0,1,1.33-3.37l-2.59-1.51a10.22,10.22,0,0,1-4.3,4c-1.69.94-.18,3.53,1.51,2.59a13,13,0,0,0,5.38-5.12,1.5,1.5,0,0,0-2.59-1.51,15.2,15.2,0,0,0-1.63,4.08,1.5,1.5,0,0,0,2.89.8,8.31,8.31,0,0,0,.47-3.9c-.12-1-1.24-2.06-2.26-1.3A8,8,0,0,0,65.4,64l2.74,1.16c.2-.5.4-1,.6-1.5.64-1.56-2-2.69-2.74-1.16q-.32.67-.62,1.35L68.13,65a6.26,6.26,0,0,0,.49-2.89A1.52,1.52,0,0,0,66.05,61a22.64,22.64,0,0,0-2.79,3.07l2.59,1.51a5.34,5.34,0,0,0,1-3.32c0-1-1.31-2-2.26-1.3a8.75,8.75,0,0,0-3.53,5.38c-.26,1.35,1.44,2.68,2.51,1.46a12.16,12.16,0,0,0,1.87-2.75c.58-1.19-.74-3-2.05-2.05a58,58,0,0,0-4.89,4c-1.42,1.34.67,3.37,2.12,2.12,2.5-2.16,5-4.14,7-6.86,1.12-1.57-1.48-3.07-2.59-1.51Z"/><path class="cls-52" d="M60,60.57a32.41,32.41,0,0,1-6.06,3.29c-1.76.81-.23,3.38,1.51,2.59a50.41,50.41,0,0,1,7.35-2.94l-1.69-2.2c-1.29,2.63-4.38,3.18-6.88,4.15L55.64,68c2-2.36,4.76-3.39,7.53-4.51L61.33,61.6c-.71,1.84-2.38,2.92-4,3.9l1.51,2.59c2.43-1.62,4.8-3.31,7.16-5,1.54-1.13,0-3.73-1.51-2.59-2.36,1.72-4.73,3.42-7.16,5-1.59,1.06-.15,3.61,1.51,2.59,2.37-1.44,4.35-3,5.37-5.7a1.51,1.51,0,0,0-1.85-1.85c-3.23,1.31-6.55,2.53-8.85,5.28-.85,1-.08,3.1,1.46,2.51,3.26-1.26,7-2.11,8.68-5.53A1.52,1.52,0,0,0,62,60.61a55.46,55.46,0,0,0-8.07,3.24l1.51,2.59a32.41,32.41,0,0,0,6.06-3.29C63,62,61.5,59.41,60,60.57Z"/><path class="cls-52" d="M56.76,60.76a20.34,20.34,0,0,1-6.57,4.79l1.51,2.59c2.75-1.51,5-3.78,7.79-5.19l-2.05-2.05c-1.23,2.13-3.74,2.95-5.73,4.19a1.5,1.5,0,0,0,1.51,2.59c2.58-1.12,4.65-3,7-4.51,1.63-1,.13-3.62-1.51-2.59-2.36,1.49-4.43,3.39-7,4.51l1.51,2.59c2.5-1.56,5.26-2.6,6.81-5.27A1.51,1.51,0,0,0,58,60.35c-2.81,1.42-5,3.68-7.79,5.19-1.7.94-.2,3.44,1.51,2.59a22.48,22.48,0,0,0,7.18-5.26c1.26-1.45-.86-3.59-2.12-2.12Z"/><path class="cls-52" d="M44.48,61.15A30.73,30.73,0,0,1,40.73,66a1.5,1.5,0,0,0,2.12,2.12,17.59,17.59,0,0,1,5.95-3.41L47.64,62c-2.48,1.4-5.17,2.33-7.57,3.88a1.51,1.51,0,0,0,1.16,2.74c4-.53,7.39-4.5,11.46-3.24V62.48c-3,1.1-6.11,1.69-9,3-1.54.68-.43,3.37,1.16,2.74,2.29-.91,4.24-2.61,6.69-3.06L50,62.63a38.52,38.52,0,0,1-3.68,3c-1.48,1.14-.19,3.63,1.51,2.59,3.37-2,7-3.5,10.52-5.29,1.72-.88.2-3.47-1.51-2.59-3.5,1.79-7.15,3.25-10.52,5.29l1.51,2.59a44.69,44.69,0,0,0,4.29-3.51,1.51,1.51,0,0,0-1.46-2.51c-2.53.47-4.35,2.13-6.69,3.06L45.16,68c2.68-1.18,5.58-1.67,8.32-2.67a1.51,1.51,0,0,0,0-2.89c-5.05-1.55-8.33,2.61-13.06,3.24l1.16,2.74c2.4-1.54,5.09-2.48,7.57-3.88,1.44-.81.48-3.33-1.16-2.74A21.59,21.59,0,0,0,40.73,66l2.12,2.12a34.49,34.49,0,0,0,4.22-5.48c1.05-1.63-1.54-3.13-2.59-1.51Z"/><path class="cls-52" d="M91.08,63.5c0,.25.06.49.08.73s.05.22,0,.1,0-.13,0,0-.08.52-.09.69,0,.15,0,.22q0-.23,0,0l2.51-.66.24.42q0,.29,0,.12a2.19,2.19,0,0,0,0-.27,4.49,4.49,0,0,0-.07-.48c0-.08-.05-.43-.05-.13a1.5,1.5,0,0,0-3,0,2.32,2.32,0,0,0,.12.79q0-.32,0-.08t0,.23a2.19,2.19,0,0,0,.62,1.53,1.52,1.52,0,0,0,2.51-.66,3.89,3.89,0,0,0,.13-.82q0-.15,0-.29,0,.19,0,0a5,5,0,0,0,.09-.79q0-.28-.08-.57t0-.1a1.5,1.5,0,0,0-3,0Z"/><path class="cls-52" d="M87.52,70.86A7.69,7.69,0,0,0,86,73.17c-.34.86-.79,1.61-1.19,2.44l2.36-.3c.21.2.15.28.1,0s-.12-.45-.16-.67a12.5,12.5,0,0,1-.08-1.3l-2.95.4c.05.27.26.56.29.82a1.54,1.54,0,0,0,1.5,1.5,1.51,1.51,0,0,0,1.5-1.5c-.06-.58-.28-1.06-.39-1.62-.33-1.65-3.06-1.29-2.95.4.08,1.28,0,3.17,1,4.15a1.51,1.51,0,0,0,2.36-.3c.37-.78.83-1.5,1.16-2.3a5.86,5.86,0,0,1,1-1.84c1.3-1.43-.82-3.55-2.12-2.12Z"/><path class="cls-52" d="M35.61,105.14c-.12-.15,0,.1.06.16s.37.47.36.48-.21-.4-.18-.45a2,2,0,0,0,0,.42,1.51,1.51,0,0,0,1.5,1.5,1.53,1.53,0,0,0,1.5-1.5,2.84,2.84,0,0,0-.28-1.57q-.15-.21-.31-.42t0,0a5.37,5.37,0,0,0-.49-.7,1.51,1.51,0,0,0-2.12,0,1.54,1.54,0,0,0,0,2.12Z"/><path class="cls-52" d="M75.5,122.75a1.5,1.5,0,0,0,0-3,1.5,1.5,0,0,0,0,3Z"/><path class="cls-52" d="M39.92,122.92a1.5,1.5,0,0,0,0-3,1.5,1.5,0,0,0,0,3Z"/><path class="cls-52" d="M33.92,122.42a1.5,1.5,0,0,0,0-3,1.5,1.5,0,0,0,0,3Z"/><path class="cls-52" d="M30.58,23.42a1.5,1.5,0,0,0,0-3,1.5,1.5,0,0,0,0,3Z"/><path class="cls-52" d="M32.33,19.17v.08a1.5,1.5,0,0,0,3,0v-.08a1.5,1.5,0,1,0-3,0Z"/><path class="cls-52" d="M12.17,28.67a1.5,1.5,0,0,0,0-3,1.5,1.5,0,0,0,0,3Z"/><path class="cls-52" d="M57.33,32.25a1.5,1.5,0,0,0,0-3,1.5,1.5,0,0,0,0,3Z"/><path class="cls-52" d="M32.17,9a1.5,1.5,0,0,0,0-3,1.5,1.5,0,0,0,0,3Z"/></g></svg>